# xmcd
#
# Track frame offsets:
#	150
#	13642
#	28012
#	49396
#	69617
#	93088
#	105861
#	125435
#	146661
#	157494
#	170103
#	182359
#	203176
#	221918
#	239057
#	254088
#	264692
#	278538
#	297805
#	315783
#	329179
#
# Disc length: 4764 seconds
# Revision: 1
# Processed by: cddbd v1.5.2PL0 Copyright (c) Steve Scherf et al.
# Submitted via: dBpowerAMP V12.0
#
DISCID=48129a15
DTITLE=Various Artist - The Classics - Destruction Vol. 1
DYEAR=2007
DGENRE=Grime
TTITLE0=Jah Mek The World Productions - Intro
TTITLE1=Wiley, D Double E, Kano and Durrty Goodz - Destruction V.I.P
TTITLE2=The Original N.A.S.T.Y. Crew (Feat. Bigga Man) - Take You Out
TTITLE3=The Original N.A.S.T.Y. Crew - Good You Know
TTITLE4=D Double E - Birds In The Sky
TTITLE5=Roll Deep and Neckle Camp - Shangooli
TTITLE6=Mizz Beatz (Feat. Roll Deep and Neckle Camp) - Seen It Coming
TTITLE7=Domino - Freestyle
TTITLE8=Ears - Freestyle
TTITLE9=Jammer - Dutty Jammin
TTITLE10=Fire Gordin (Feat. C Gritz and Jammer) - Dem A Shoot
TTITLE11=Nana - Take Me Home
TTITLE12=Sharky Major - Diss Aint A Game
TTITLE13=Stormin - Ghetto
TTITLE14=Alisha - Lies
TTITLE15=DM - Call Me
TTITLE16=Klashnekoff - Iron Face
TTITLE17=Gift Of The Gab (Feat. Alisha) - Stop and Look Around
TTITLE18=G-Force - Deep Inside
TTITLE19=Kano (Feat. Jammer) - Tap Out
TTITLE20=DM, G-Force and Slew Dem - Defeat Us Never V.I.P Mix
EXTD=
EXTT0=
EXTT1=
EXTT2=
EXTT3=
EXTT4=
EXTT5=
EXTT6=
EXTT7=
EXTT8=
EXTT9=
EXTT10=
EXTT11=
EXTT12=
EXTT13=
EXTT14=
EXTT15=
EXTT16=
EXTT17=
EXTT18=
EXTT19=
EXTT20=
PLAYORDER=
